# xmcd
#
# Track frame offsets:
# 150
# 16836
# 31588
# 49434
# 63481
# 82240
# 98774
# 114983
# 134014
# 157268
# 179582
# 195656
# 221168
# 236017
# 254773
# 268252
# 287149
# 304143
# 324564
# 343625
# 363863
#
# Disc length: 4921 seconds
#
#
# Revision: 0
# Processed by: cddbd v1.5.1PL2 Copyright (c) Steve Scherf et al.
# Submitted via: FreeRIP 2.945 
#
DISCID=4e133715
DTITLE=Faith Hill - There You'll Be
DYEAR=2002
DGENRE=Pop
TTITLE0=There You'll Be
TTITLE1=This Kiss
TTITLE2=Breathe (Radio Mix)
TTITLE3=The Way You Love Me
TTITLE4=Let Me Let Go
TTITLE5=Piece of My Heart
TTITLE6=If My Heart Had Wings
TTITLE7=There Will Come A Day
TTITLE8=Love Will Always Win
TTITLE9=My Wild Frontier
TTITLE10=You Give Me Love
TTITLE11=Somewhere Down The Road
TTITLE12=Over The Rainbow
TTITLE13=Breathe
TTITLE14=The Way You Love Me (Remix)
TTITLE15=Let's Make Love
TTITLE16=It WIll Be Me
TTITLE17=If I Should Fall Behind
TTITLE18=That's How Love Moves
TTITLE19=Just To Hear You Say That You Love Me
TTITLE20=Unknown
EXTD=
EXTT0=
EXTT1=
EXTT2=
EXTT3=
EXTT4=
EXTT5=
EXTT6=
EXTT7=
EXTT8=
EXTT9=
EXTT10=
EXTT11=
EXTT12=
EXTT13=
EXTT14=
EXTT15=
EXTT16=
EXTT17=
EXTT18=
EXTT19=
EXTT20=
PLAYORDER=
